<svg xmlns="http://www.w3.org/2000/svg" width="520" height="200">
<defs>
  <linearGradient id="bg8" x1="0" y1="0" x2="1" y2="1">
    <stop offset="0%" stop-color="#0d0818"/><stop offset="100%" stop-color="#130a1f"/>
  </linearGradient>
</defs>
<rect width="520" height="200" fill="url(#bg8)"/>
<rect width="520" height="34" fill="#0e091b"/>
<text x="14" y="22" font-family="system-ui,sans-serif" font-size="11" font-weight="700" fill="#d8b4fe">CNV Diagnostic</text>
<text x="134" y="22" font-family="system-ui,sans-serif" font-size="9" fill="#475569">CMA chromosomique · 25 études · 79 417 patients · 6 indications</text>
<rect x="398" y="7" width="114" height="20" rx="10" fill="#d8b4fe18"/>
<text x="455" y="21" font-family="system-ui,sans-serif" font-size="9" font-weight="700" fill="#d8b4fe" text-anchor="middle">Yield diag. 14.8%</text>
<!-- Chromosome ideogram simplified -->
<rect x="8" y="40" width="504" height="52" rx="6" fill="#0c0918" stroke="#d8b4fe15" stroke-width="1"/>
<text x="16" y="54" font-family="system-ui,sans-serif" font-size="8" fill="#7c3aed">CARYOTYPE VIRTUEL — ARRAY CGH · Réf. GRCh38</text>
<!-- Chromosomes 1-22 + X -->
<g opacity=".9">
<!-- chr1 -->
<rect x="16" y="60" width="14" height="24" rx="2" fill="#d8b4fe30" stroke="#d8b4fe50" stroke-width="1"/>
<rect x="16" y="60" width="14" height="4" rx="1" fill="#d8b4fe60"/>
<text x="23" y="93" font-family="system-ui,sans-serif" font-size="6" fill="#64748b" text-anchor="middle">1</text>
<!-- chr2 -->
<rect x="34" y="62" width="13" height="22" rx="2" fill="#d8b4fe30" stroke="#d8b4fe50" stroke-width="1"/>
<text x="40" y="93" font-family="system-ui,sans-serif" font-size="6" fill="#64748b" text-anchor="middle">2</text>
<!-- chr3 highlighted deletion -->
<rect x="51" y="63" width="12" height="20" rx="2" fill="#f8717130" stroke="#f87171" stroke-width="1.5"/>
<rect x="51" y="68" width="12" height="4" rx="1" fill="#f87171" opacity=".6"/>
<text x="57" y="93" font-family="system-ui,sans-serif" font-size="6" fill="#f87171" text-anchor="middle">3</text>
<!-- chr4 -->
<rect x="67" y="64" width="12" height="19" rx="2" fill="#d8b4fe30" stroke="#d8b4fe50" stroke-width="1"/>
<text x="73" y="93" font-family="system-ui,sans-serif" font-size="6" fill="#64748b" text-anchor="middle">4</text>
<!-- chr5 -->
<rect x="83" y="65" width="11" height="18" rx="2" fill="#d8b4fe30" stroke="#d8b4fe50" stroke-width="1"/>
<text x="88" y="93" font-family="system-ui,sans-serif" font-size="6" fill="#64748b" text-anchor="middle">5</text>
<!-- chr6 -->
<rect x="98" y="65" width="11" height="18" rx="2" fill="#d8b4fe30" stroke="#d8b4fe50" stroke-width="1"/>
<text x="103" y="93" font-family="system-ui,sans-serif" font-size="6" fill="#64748b" text-anchor="middle">6</text>
<!-- chr7 highlighted duplication -->
<rect x="113" y="66" width="10" height="17" rx="2" fill="#60a5fa30" stroke="#60a5fa" stroke-width="1.5"/>
<rect x="113" y="69" width="10" height="4" rx="1" fill="#60a5fa" opacity=".6"/>
<text x="118" y="93" font-family="system-ui,sans-serif" font-size="6" fill="#60a5fa" text-anchor="middle">7</text>
<!-- chr8-22 normal -->
<rect x="127" y="67" width="10" height="16" rx="2" fill="#d8b4fe30" stroke="#d8b4fe40" stroke-width="1"/>
<text x="132" y="93" font-family="system-ui,sans-serif" font-size="6" fill="#64748b" text-anchor="middle">8</text>
<rect x="141" y="68" width="9" height="15" rx="2" fill="#d8b4fe30" stroke="#d8b4fe40" stroke-width="1"/>
<text x="145" y="93" font-family="system-ui,sans-serif" font-size="6" fill="#64748b" text-anchor="middle">9</text>
<rect x="154" y="68" width="9" height="15" rx="2" fill="#d8b4fe30" stroke="#d8b4fe40" stroke-width="1"/>
<text x="158" y="93" font-family="system-ui,sans-serif" font-size="6" fill="#64748b" text-anchor="middle">10</text>
<rect x="167" y="69" width="9" height="14" rx="2" fill="#d8b4fe30" stroke="#d8b4fe40" stroke-width="1"/>
<text x="171" y="93" font-family="system-ui,sans-serif" font-size="6" fill="#64748b" text-anchor="middle">11</text>
<rect x="180" y="69" width="9" height="14" rx="2" fill="#d8b4fe30" stroke="#d8b4fe40" stroke-width="1"/>
<text x="184" y="93" font-family="system-ui,sans-serif" font-size="6" fill="#64748b" text-anchor="middle">12</text>
<rect x="193" y="70" width="8" height="13" rx="2" fill="#d8b4fe30" stroke="#d8b4fe40" stroke-width="1"/>
<text x="197" y="93" font-family="system-ui,sans-serif" font-size="6" fill="#64748b" text-anchor="middle">13</text>
<rect x="205" y="70" width="8" height="13" rx="2" fill="#d8b4fe30" stroke="#d8b4fe40" stroke-width="1"/>
<text x="209" y="93" font-family="system-ui,sans-serif" font-size="6" fill="#64748b" text-anchor="middle">14</text>
<rect x="217" y="71" width="8" height="12" rx="2" fill="#d8b4fe30" stroke="#d8b4fe40" stroke-width="1"/>
<text x="221" y="93" font-family="system-ui,sans-serif" font-size="6" fill="#64748b" text-anchor="middle">15</text>
<rect x="229" y="71" width="7" height="12" rx="2" fill="#d8b4fe30" stroke="#d8b4fe40" stroke-width="1"/>
<text x="232" y="93" font-family="system-ui,sans-serif" font-size="6" fill="#64748b" text-anchor="middle">16</text>
<rect x="240" y="72" width="7" height="11" rx="2" fill="#d8b4fe30" stroke="#d8b4fe40" stroke-width="1"/>
<text x="243" y="93" font-family="system-ui,sans-serif" font-size="6" fill="#64748b" text-anchor="middle">17</text>
<rect x="251" y="72" width="7" height="11" rx="2" fill="#d8b4fe30" stroke="#d8b4fe40" stroke-width="1"/>
<text x="254" y="93" font-family="system-ui,sans-serif" font-size="6" fill="#64748b" text-anchor="middle">18</text>
<rect x="262" y="73" width="6" height="10" rx="2" fill="#d8b4fe30" stroke="#d8b4fe40" stroke-width="1"/>
<text x="265" y="93" font-family="system-ui,sans-serif" font-size="6" fill="#64748b" text-anchor="middle">19</text>
<rect x="272" y="73" width="6" height="10" rx="2" fill="#d8b4fe30" stroke="#d8b4fe40" stroke-width="1"/>
<text x="275" y="93" font-family="system-ui,sans-serif" font-size="6" fill="#64748b" text-anchor="middle">20</text>
<rect x="282" y="74" width="6" height="9" rx="2" fill="#d8b4fe30" stroke="#d8b4fe40" stroke-width="1"/>
<text x="285" y="93" font-family="system-ui,sans-serif" font-size="6" fill="#64748b" text-anchor="middle">21</text>
<rect x="292" y="74" width="5" height="9" rx="2" fill="#d8b4fe30" stroke="#d8b4fe40" stroke-width="1"/>
<text x="294" y="93" font-family="system-ui,sans-serif" font-size="6" fill="#64748b" text-anchor="middle">22</text>
<rect x="301" y="67" width="9" height="16" rx="2" fill="#d8b4fe30" stroke="#d8b4fe40" stroke-width="1"/>
<text x="305" y="93" font-family="system-ui,sans-serif" font-size="6" fill="#64748b" text-anchor="middle">X</text>
</g>
<!-- Legend -->
<rect x="330" y="58" width="60" height="10" rx="3" fill="#f8717118" stroke="#f8717140" stroke-width="1"/>
<text x="360" y="66" font-family="system-ui,sans-serif" font-size="6" fill="#f87171" text-anchor="middle">Délétion</text>
<rect x="398" y="58" width="60" height="10" rx="3" fill="#60a5fa18" stroke="#60a5fa40" stroke-width="1"/>
<text x="428" y="66" font-family="system-ui,sans-serif" font-size="6" fill="#60a5fa" text-anchor="middle">Duplication</text>
<!-- CNV table -->
<rect x="8" y="98" width="504" height="96" rx="6" fill="#0c0918" stroke="#d8b4fe15" stroke-width="1"/>
<text x="14" y="113" font-family="system-ui,sans-serif" font-size="8" fill="#7c3aed">CNVs DÉTECTÉS · INTERPRÉTATION CLINIQUE</text>
<text x="14" y="127" font-family="system-ui,sans-serif" font-size="8" fill="#334155">RÉGION</text>
<text x="115" y="127" font-family="system-ui,sans-serif" font-size="8" fill="#334155">TYPE</text>
<text x="165" y="127" font-family="system-ui,sans-serif" font-size="8" fill="#334155">TAILLE</text>
<text x="220" y="127" font-family="system-ui,sans-serif" font-size="8" fill="#334155">CLASSIFICATION</text>
<text x="360" y="127" font-family="system-ui,sans-serif" font-size="8" fill="#334155">SYNDROME ASSOCIÉ</text>
<!-- Row 1 -->
<rect x="14" y="130" width="488" height="18" rx="3" fill="#f8717110"/>
<text x="18" y="142" font-family="monospace,sans-serif" font-size="8" fill="#e2e8f0">3p26.3-p26.1</text>
<rect x="112" y="133" width="40" height="12" rx="6" fill="#f8717125"/><text x="132" y="142" font-family="system-ui,sans-serif" font-size="7.5" fill="#f87171" text-anchor="middle">del</text>
<text x="165" y="142" font-family="system-ui,sans-serif" font-size="8" fill="#94a3b8">3.2 Mb</text>
<rect x="217" y="133" width="100" height="12" rx="6" fill="#f8717120"/><text x="267" y="142" font-family="system-ui,sans-serif" font-size="7.5" fill="#f87171" text-anchor="middle">PATHOGÈNE</text>
<text x="360" y="142" font-family="system-ui,sans-serif" font-size="8" fill="#fca5a5">3p deletion syndrome</text>
<!-- Row 2 -->
<rect x="14" y="150" width="488" height="18" rx="3" fill="#60a5fa08"/>
<text x="18" y="162" font-family="monospace,sans-serif" font-size="8" fill="#e2e8f0">7q11.23</text>
<rect x="112" y="153" width="40" height="12" rx="6" fill="#60a5fa20"/><text x="132" y="162" font-family="system-ui,sans-serif" font-size="7.5" fill="#60a5fa" text-anchor="middle">dup</text>
<text x="165" y="162" font-family="system-ui,sans-serif" font-size="8" fill="#94a3b8">1.5 Mb</text>
<rect x="217" y="153" width="100" height="12" rx="6" fill="#60a5fa20"/><text x="267" y="162" font-family="system-ui,sans-serif" font-size="7.5" fill="#60a5fa" text-anchor="middle">PATHOGÈNE</text>
<text x="360" y="162" font-family="system-ui,sans-serif" font-size="8" fill="#93c5fd">Dup. 7q11.23 (Inv. Williams)</text>
<!-- Row 3 -->
<rect x="14" y="170" width="488" height="18" rx="3" fill="#d8b4fe08"/>
<text x="18" y="182" font-family="monospace,sans-serif" font-size="8" fill="#e2e8f0">15q11.2</text>
<rect x="112" y="173" width="40" height="12" rx="6" fill="#f8717115"/><text x="132" y="182" font-family="system-ui,sans-serif" font-size="7.5" fill="#f87171" text-anchor="middle">del</text>
<text x="165" y="182" font-family="system-ui,sans-serif" font-size="8" fill="#94a3b8">0.5 Mb</text>
<rect x="217" y="173" width="130" height="12" rx="6" fill="#f59e0b18"/><text x="282" y="182" font-family="system-ui,sans-serif" font-size="7.5" fill="#f59e0b" text-anchor="middle">SIGNIF. INCERTAINE</text>
<text x="360" y="182" font-family="system-ui,sans-serif" font-size="8" fill="#fbbf24">Burnside-Butler possible</text>
</svg>