<svg xmlns="http://www.w3.org/2000/svg" viewBox="0 0 400 130" width="400" height="130">
  <defs>
    <linearGradient id="grbg" x1="0" y1="0" x2="1" y2="1"><stop offset="0%" stop-color="#0e0a04"/><stop offset="100%" stop-color="#1a1208"/></linearGradient>
  </defs>
  <rect width="400" height="130" fill="url(#grbg)" rx="8"/>
  <rect x="0" y="0" width="400" height="22" fill="#160f04" fill-opacity="0.95" rx="8"/>
  <rect x="0" y="14" width="400" height="8" fill="#160f04" fill-opacity="0.95"/>
  <text x="10" y="15" font-family="monospace" font-size="8.5" fill="#fdba74" font-weight="700">Générateur CR IA — Compte Rendu Médical</text>
  <text x="322" y="15" font-family="monospace" font-size="7.5" fill="#64748b">Claude AI</text>

  <!-- Input block -->
  <rect x="8" y="27" width="120" height="95" rx="5" fill="#160f04" fill-opacity="0.7" stroke="#fdba74" stroke-width="0.4" stroke-opacity="0.3"/>
  <text x="14" y="38" font-family="monospace" font-size="7" fill="#94a3b8" font-weight="700">DONNÉES PATIENT</text>
  <text x="14" y="50" font-family="monospace" font-size="6.5" fill="#64748b">M. Dupont · 67 ans · H</text>
  <text x="14" y="61" font-family="monospace" font-size="6.5" fill="#64748b">ATCD: HTA, Diabète T2</text>
  <text x="14" y="72" font-family="monospace" font-size="6.5" fill="#64748b">Motif: Douleur thorac.</text>
  <text x="14" y="83" font-family="monospace" font-size="6.5" fill="#64748b">PA: 148/92 mmHg</text>
  <text x="14" y="94" font-family="monospace" font-size="6.5" fill="#64748b">FC: 88 bpm · SpO2 97%</text>
  <text x="14" y="105" font-family="monospace" font-size="6.5" fill="#fdba74">→ Générer CR</text>
  <rect x="14" y="108" width="106" height="10" rx="3" fill="#fdba74" fill-opacity="0.15"/>
  <text x="28" y="116" font-family="monospace" font-size="7" fill="#fdba74" font-weight="700">Générer le CR ↗</text>

  <!-- Arrow -->
  <text x="133" y="77" font-family="monospace" font-size="14" fill="#fdba74" fill-opacity="0.5">→</text>

  <!-- Output block -->
  <rect x="148" y="27" width="244" height="95" rx="5" fill="#0e0a04" fill-opacity="0.7" stroke="#fdba74" stroke-width="0.5"/>
  <text x="154" y="38" font-family="monospace" font-size="7" fill="#fdba74" font-weight="700">COMPTE RENDU GÉNÉRÉ — Claude AI</text>
  <rect x="154" y="42" width="232" height="10" rx="2" fill="#1a1208"/>
  <text x="158" y="50" font-family="monospace" font-size="6.5" fill="#fde68a" font-weight="700">MOTIF DE CONSULTATION</text>
  <text x="158" y="60" font-family="monospace" font-size="6.5" fill="#94a3b8">Douleur thoracique atypique d'apparition progressive...</text>
  <rect x="154" y="63" width="232" height="10" rx="2" fill="#1a1208"/>
  <text x="158" y="71" font-family="monospace" font-size="6.5" fill="#fde68a" font-weight="700">EXAMEN CLINIQUE</text>
  <text x="158" y="81" font-family="monospace" font-size="6.5" fill="#94a3b8">PA 148/92 mmHg, FC 88 bpm, auscultation normale...</text>
  <rect x="154" y="84" width="232" height="10" rx="2" fill="#1a1208"/>
  <text x="158" y="92" font-family="monospace" font-size="6.5" fill="#fde68a" font-weight="700">CONCLUSION &amp; CONDUITE À TENIR</text>
  <text x="158" y="102" font-family="monospace" font-size="6.5" fill="#94a3b8">Suspicion SCA. ECG + troponine urgents. Avis cardio.</text>
  <rect x="272" y="108" width="60" height="10" rx="3" fill="#dc2626" fill-opacity="0.15"/>
  <text x="278" y="116" font-family="monospace" font-size="6.5" fill="#f87171" font-weight="700">Export PDF ↓</text>
  <rect x="338" y="108" width="50" height="10" rx="3" fill="#1d4ed8" fill-opacity="0.2"/>
  <text x="344" y="116" font-family="monospace" font-size="6.5" fill="#93c5fd" font-weight="700">Copier ✓</text>
</svg>
